<?xml version="1.0" encoding="UTF-8" standalone="no"?>
<svg width="21px" height="21px" viewBox="0 0 21 21" version="1.1" xmlns="http://www.w3.org/2000/svg" xmlns:xlink="http://www.w3.org/1999/xlink">
    <!-- Generator: sketchtool 3.8.2 (29753) - http://www.bohemiancoding.com/sketch -->
    <title>D673597D-C6D1-4A16-9825-78E51A3A828F</title>
    <desc>Created with sketchtool.</desc>
    <defs></defs>
    <g id="Mambo-home" stroke="none" stroke-width="1" fill="none" fill-rule="evenodd">
        <g id="D4-mambo-home" transform="translate(-99.000000, -983.000000)">
            <g id="alertas" transform="translate(99.000000, 312.000000)">
                <g id="tarea-4" transform="translate(0.000000, 668.000000)">
                    <g id="alerta-importante" transform="translate(0.000000, 3.000000)">
                        <path d="M21,10.4999525 C21,16.2988982 16.2989457,20.9999525 10.5,20.9999525 C4.7010543,20.9999525 0,16.2988982 0,10.4999525 C0,4.70100679 4.7010543,-4.75113122e-05 10.5,-4.75113122e-05 C16.2989457,-4.75113122e-05 21,4.70100679 21,10.4999525" id="Fill-1" fill="#FDB915"></path>
                        <path d="M11.9401439,16.8044825 C11.9401439,16.9186656 11.9062208,17.0140761 11.8387548,17.091436 C11.7713837,17.1686927 11.688809,17.2073727 11.5912208,17.2073727 L9.43107149,17.2073727 C9.33357828,17.2073727 9.24729774,17.1666298 9.17241991,17.0853504 C9.09735204,17.0039678 9.0598181,16.9102076 9.0598181,16.8044825 L9.0598181,14.4843053 C9.0598181,14.3783738 9.09735204,14.2846136 9.17241991,14.2032311 C9.24729774,14.1219516 9.33357828,14.0813119 9.43107149,14.0813119 L11.5912208,14.0813119 C11.688809,14.0813119 11.7716688,14.1201981 11.8387548,14.1970423 C11.9062208,14.2749179 11.9401439,14.3701221 11.9401439,14.4843053 L11.9401439,16.8044825 Z" id="Fill-4" fill="#FFFFFF"></path>
                        <path d="M11.9175475,11.5180793 C11.9099457,11.5994619 11.8707964,11.670633 11.7997195,11.731902 C11.7282624,11.7927584 11.6403665,11.8230835 11.5353665,11.8230835 L9.4538009,11.8230835 C9.3488009,11.8230835 9.25881448,11.7927584 9.18374661,11.731902 C9.10877376,11.670633 9.07123982,11.5994619 9.07123982,11.5180793 L8.87995928,3.93402718 C8.87995928,3.83614115 8.91739819,3.76301029 8.99237104,3.714222 C9.06753394,3.64903342 9.15752036,3.61654227 9.26242534,3.61654227 L11.7378597,3.61654227 C11.8429548,3.61654227 11.9329412,3.64893027 12.007819,3.714222 C12.0827919,3.76301029 12.1200407,3.8362443 12.1200407,3.93402718 L11.9175475,11.5180793 Z" id="Fill-6" fill="#FFFFFF"></path>
                    </g>
                </g>
            </g>
        </g>
    </g>
</svg>