<?xml version="1.0" encoding="UTF-8" standalone="no"?>
<svg width="70px" height="35px" viewBox="0 0 70 35" version="1.1" xmlns="http://www.w3.org/2000/svg" xmlns:xlink="http://www.w3.org/1999/xlink">
    <!-- Generator: Sketch 3.7.2 (28276) - http://www.bohemiancoding.com/sketch -->
    <title>logo mambo home</title>
    <desc>Created with Sketch.</desc>
    <defs></defs>
    <g id="desktop-header-mambo-home" stroke="none" stroke-width="1" fill="none" fill-rule="evenodd">
        <g id="D1_-header-mambo-home" transform="translate(-97.000000, -14.000000)" fill="#FFFFFF">
            <g id="header">
                <g id="logo-mambo-home">
                    <g transform="translate(97.000000, 14.000000)">
                        <path d="M14.8663643,34.4854201 L13.9563643,34.4854201 C12.9683593,34.4854201 12.4743643,34.2167562 12.4743643,33.6794201 L13.1763643,26.8674201 L6.15636425,26.8674201 L5.45436425,33.6534201 C5.40236399,34.2080896 4.85636945,34.4854201 3.81636425,34.4854201 L2.90636425,34.4854201 C1.91835931,34.4854201 1.42436425,34.2167562 1.42436425,33.6794201 L3.16636425,17.0134201 C3.21836451,16.4587507 3.76435905,16.1814201 4.80436425,16.1814201 L5.71436425,16.1814201 C6.70236919,16.1814201 7.19636425,16.4500841 7.19636425,16.9874201 L6.52036425,23.4354201 L13.5403643,23.4354201 L14.2163643,17.0134201 C14.2683645,16.4587507 14.8143591,16.1814201 15.8543643,16.1814201 L16.7643643,16.1814201 C17.7523692,16.1814201 18.2463643,16.4500841 18.2463643,16.9874201 L16.5043643,33.6534201 C16.452364,34.2080896 15.9063695,34.4854201 14.8663643,34.4854201 L14.8663643,34.4854201 Z M20.2483643,28.9474201 C20.2483643,26.6767421 20.7510259,24.7614279 21.7563643,23.2014201 C22.2763669,22.4040828 23.0173594,21.7757558 23.9793643,21.3164201 C24.9413691,20.8570845 26.0723578,20.6274201 27.3723643,20.6274201 C29.2270402,20.6274201 30.6310262,21.1127486 31.5843643,22.0834201 C32.5377024,23.0540917 33.0143643,24.4754108 33.0143643,26.3474201 C33.0143643,28.9821 32.3817039,31.0230796 31.1163643,32.4704201 C29.8510246,33.9177607 28.109042,34.6414201 25.8903643,34.6414201 C24.0356883,34.6414201 22.6317024,34.1560917 21.6783643,33.1854201 C20.7250262,32.2147486 20.2483643,30.8020961 20.2483643,28.9474201 L20.2483643,28.9474201 Z M26.2023643,31.5994201 C27.1037021,31.5994201 27.8100284,31.1617578 28.3213643,30.2864201 C28.8327001,29.4110824 29.0883643,28.1587616 29.0883643,26.5294201 C29.0883643,24.6227439 28.412371,23.6694201 27.0603643,23.6694201 C26.141693,23.6694201 25.4267001,24.1070824 24.9153643,24.9824201 C24.4040284,25.8577578 24.1483643,27.1187452 24.1483643,28.7654201 C24.1483643,30.6547629 24.8330241,31.5994201 26.2023643,31.5994201 L26.2023643,31.5994201 Z M35.9003643,23.3054201 L35.8483643,21.8494201 C35.8483643,21.5720854 36.1343614,21.3467543 36.7063643,21.1734201 C37.2783671,21.0000859 37.9976933,20.9134201 38.8643643,20.9134201 C39.2630329,20.9134201 39.5143637,21.1907507 39.6183643,21.7454201 C39.6530311,21.9534212 39.6790308,22.2480849 39.6963643,22.6294201 C40.1470332,22.0747507 40.7450272,21.6024221 41.4903643,21.2124201 C42.2357013,20.8224182 42.9810272,20.6274201 43.7263643,20.6274201 C45.5290399,20.6274201 46.621029,21.2947468 47.0023643,22.6294201 C47.4356998,22.0920841 48.0423604,21.6240888 48.8223643,21.2254201 C49.6023682,20.8267515 50.3823604,20.6274201 51.1623643,20.6274201 C53.4503757,20.6274201 54.5943643,21.7280758 54.5943643,23.9294201 L53.9443643,30.7414201 C53.9443643,31.313423 54.2043617,31.5994201 54.7243643,31.5994201 C54.8630316,31.5994201 55.0190301,31.5734204 55.1923643,31.5214201 C55.3656985,31.4694199 55.4610308,31.4434201 55.4783643,31.4434201 C55.6170316,31.4434201 55.6863643,31.5734188 55.6863643,31.8334201 C55.6863643,32.0934214 55.6256982,32.5787499 55.5043643,33.2894201 C55.4350306,33.7227556 55.1663666,34.056419 54.6983643,34.2904201 C54.2303619,34.5244213 53.7363669,34.6414201 53.2163643,34.6414201 C51.1190204,34.6414201 50.0703643,33.5407645 50.0703643,31.3394201 L50.6683643,25.0994201 C50.6683643,24.2327491 50.230702,23.7994201 49.3553643,23.7994201 C48.4800265,23.7994201 47.7043676,24.2934152 47.0283643,25.2814201 L46.2223643,33.6534201 C46.170364,34.2080896 45.6243695,34.4854201 44.5843643,34.4854201 L43.8563643,34.4854201 C43.3710285,34.4854201 43.0026988,34.4074209 42.7513643,34.2514201 C42.5000297,34.0954194 42.3743643,33.9047546 42.3743643,33.6794201 C42.9463671,28.1327257 43.2323643,25.2727543 43.2323643,25.0994201 C43.2323643,24.2327491 42.794702,23.7994201 41.9193643,23.7994201 C41.0440265,23.7994201 40.2683676,24.3020818 39.5923643,25.3074201 L38.7603643,33.6534201 C38.708364,34.2080896 38.1623695,34.4854201 37.1223643,34.4854201 L36.3943643,34.4854201 C35.9090285,34.4854201 35.5406988,34.4074209 35.2893643,34.2514201 C35.0380297,34.0954194 34.9123643,33.9047546 34.9123643,33.6794201 L35.7963643,25.1514201 C35.8656979,24.4754168 35.9003643,23.8600896 35.9003643,23.3054201 L35.9003643,23.3054201 Z M61.7573643,31.0404201 C62.2166999,31.4130887 62.8103606,31.5994201 63.5383643,31.5994201 C64.2663679,31.5994201 64.9423611,31.5040878 65.5663643,31.3134201 C66.1903674,31.1227525 66.6973623,30.9320878 67.0873643,30.7414201 C67.4773662,30.5507525 67.698364,30.4554201 67.7503643,30.4554201 C67.8890316,30.4554201 67.9583643,30.5767523 67.9583643,30.8194201 C67.9583643,31.0794214 67.9323645,31.4477511 67.8803643,31.9244201 C67.828364,32.4010892 67.7850311,32.7000862 67.7503643,32.8214201 C67.5596966,33.4627567 66.9963689,33.9264187 66.0603643,34.2124201 C65.1243596,34.4984216 64.1797024,34.6414201 63.2263643,34.6414201 C61.1636873,34.6414201 59.6253693,34.1387585 58.6113643,33.1334201 C57.5973592,32.1280818 57.0903643,30.7240958 57.0903643,28.9214201 C57.0903643,26.0960727 57.7576909,24.0074269 59.0923643,22.6554201 C60.4270376,21.3034134 62.1430204,20.6274201 64.2403643,20.6274201 C65.2283692,20.6274201 66.077694,20.7574188 66.7883643,21.0174201 C67.4990345,21.2774214 68.0190293,21.6154181 68.3483643,22.0314201 C68.9723674,22.7940906 69.2843643,23.5827494 69.2843643,24.3974201 C69.2843643,25.9920948 68.7210366,27.1837495 67.5943643,27.9724201 C66.467692,28.7610907 65.167705,29.1554201 63.6943643,29.1554201 C62.7410262,29.1554201 61.8397018,29.0947541 60.9903643,28.9734201 C61.0423645,29.9787585 61.2980286,30.6677516 61.7573643,31.0404201 L61.7573643,31.0404201 Z M63.9803643,23.6694201 C62.5416904,23.6694201 61.6056998,24.6400771 61.1723643,26.5814201 L62.4203643,26.5814201 C63.5297031,26.5814201 64.3270285,26.4124218 64.8123643,26.0744201 C65.2977,25.7364184 65.5403643,25.3420891 65.5403643,24.8914201 C65.5403643,24.0767494 65.0203695,23.6694201 63.9803643,23.6694201 L63.9803643,23.6694201 Z" id="Home"></path>
                        <path d="M1.04705211,9.9784447 L1.04705211,5.8574447 C1.04705211,5.20744145 1.02105237,4.752446 0.969052108,4.4924447 C0.917051848,4.2324434 0.891052108,4.07644496 0.891052108,4.0244447 C0.891052108,3.88577734 1.06655035,3.78177838 1.41755211,3.7124447 C1.76855386,3.64311102 2.03071791,3.6084447 2.20405211,3.6084447 C2.37738631,3.6084447 2.49221849,3.62577786 2.54855211,3.6604447 C2.60488572,3.69511154 2.65038527,3.74927766 2.68505211,3.8229447 C2.71971895,3.89661173 2.74571869,3.95727779 2.76305211,4.0049447 C2.78038553,4.0526116 2.79988533,4.13277747 2.82155211,4.2454447 C2.84321888,4.35811193 2.8583854,4.42744457 2.86705211,4.4534447 C3.07505315,4.17610998 3.35021706,3.94211232 3.69255211,3.7514447 C4.03488715,3.56077708 4.40105016,3.4654447 4.79105211,3.4654447 C5.68372324,3.4654447 6.25571752,3.79477474 6.50705211,4.4534447 C6.72371986,4.17610998 7.009717,3.94211232 7.36505211,3.7514447 C7.72038722,3.56077708 8.10171674,3.4654447 8.50905211,3.4654447 C9.15905536,3.4654447 9.6378839,3.63660965 9.94555211,3.9789447 C10.2532203,4.32127974 10.4070521,4.85210777 10.4070521,5.5714447 L10.4070521,9.9784447 C10.4070521,10.2557794 10.1470547,10.3944447 9.62705211,10.3944447 L9.26305211,10.3944447 C8.74304951,10.3944447 8.48305211,10.2557794 8.48305211,9.9784447 L8.48305211,5.8574447 C8.48305211,5.32010868 8.227388,5.0514447 7.71605211,5.0514447 C7.29138332,5.0514447 6.94905341,5.30277552 6.68905211,5.8054447 L6.68905211,9.9784447 C6.68905211,10.2557794 6.42905471,10.3944447 5.90905211,10.3944447 L5.54505211,10.3944447 C5.02504951,10.3944447 4.76505211,10.2557794 4.76505211,9.9784447 L4.76505211,5.8574447 C4.76505211,5.32010868 4.509388,5.0514447 3.99805211,5.0514447 C3.57338332,5.0514447 3.23105341,5.30277552 2.97105211,5.8054447 L2.97105211,9.9784447 C2.97105211,10.2557794 2.71105471,10.3944447 2.19105211,10.3944447 L1.82705211,10.3944447 C1.30704951,10.3944447 1.04705211,10.2557794 1.04705211,9.9784447 L1.04705211,9.9784447 Z M11.8110521,8.5744447 C11.8110521,8.33177682 11.8327186,8.11077903 11.8760521,7.9114447 C11.9193857,7.71211037 12.0190513,7.49761251 12.1750521,7.2679447 C12.3310529,7.03827688 12.5390508,6.84977877 12.7990521,6.7024447 C13.4143885,6.33844288 14.3287127,6.1564447 15.5420521,6.1564447 L15.5420521,5.7274447 C15.5420521,5.23344223 15.2040555,4.9864447 14.5280521,4.9864447 C14.0513831,4.9864447 13.587721,5.09044366 13.1370521,5.2984447 C12.9810513,5.36777838 12.8900522,5.4024447 12.8640521,5.4024447 C12.7340515,5.4024447 12.5888862,5.26811271 12.4285521,4.9994447 C12.268218,4.73077669 12.1880521,4.51844548 12.1880521,4.3624447 C12.1880521,4.12844353 12.4285497,3.92044561 12.9095521,3.7384447 C13.3905545,3.55644379 13.9777153,3.4654447 14.6710521,3.4654447 C16.5343948,3.4654447 17.4660521,4.18910413 17.4660521,5.6364447 L17.4660521,8.0804447 C17.4660521,8.61778072 17.4920518,9.06844288 17.5440521,9.4324447 L17.6220521,9.9654447 C17.6220521,10.1041121 17.4465539,10.208111 17.0955521,10.2774447 C16.7445504,10.3467784 16.4823863,10.3814447 16.3090521,10.3814447 C16.1357179,10.3814447 16.0208857,10.3641115 15.9645521,10.3294447 C15.9082185,10.2947779 15.8627189,10.2362784 15.8280521,10.1539447 C15.7933853,10.071611 15.7673855,10.0066116 15.7500521,9.9589447 C15.7327187,9.91127779 15.7132189,9.82677864 15.6915521,9.7054447 C15.6698853,9.58411076 15.6547188,9.51044483 15.6460521,9.4844447 C15.4900513,9.76177942 15.2213873,9.99577708 14.8400521,10.1864447 C14.4587169,10.3771123 14.0903872,10.4724447 13.7350521,10.4724447 C13.0677154,10.4724447 12.5802203,10.2991131 12.2725521,9.9524447 C11.9648839,9.6057763 11.8110521,9.14644756 11.8110521,8.5744447 L11.8110521,8.5744447 Z M13.7220521,8.3794447 C13.7220521,8.5527789 13.7783849,8.69144418 13.8910521,8.7954447 C14.0037193,8.89944522 14.1727176,8.9514447 14.3980521,8.9514447 C14.6233866,8.9514447 14.8443844,8.87344548 15.0610521,8.7174447 C15.2777199,8.56144392 15.4380516,8.36644587 15.5420521,8.1324447 L15.5420521,7.4174447 C14.3287127,7.4174447 13.7220521,7.73810816 13.7220521,8.3794447 L13.7220521,8.3794447 Z M19.1560521,9.9784447 L19.1560521,5.8574447 C19.1560521,5.20744145 19.1300524,4.752446 19.0780521,4.4924447 C19.0260518,4.2324434 19.0000521,4.07644496 19.0000521,4.0244447 C19.0000521,3.88577734 19.1755504,3.78177838 19.5265521,3.7124447 C19.8775539,3.64311102 20.1397179,3.6084447 20.3130521,3.6084447 C20.4863863,3.6084447 20.6012185,3.62577786 20.6575521,3.6604447 C20.7138857,3.69511154 20.7593853,3.74927766 20.7940521,3.8229447 C20.8287189,3.89661173 20.8547187,3.95727779 20.8720521,4.0049447 C20.8893855,4.0526116 20.9088853,4.13277747 20.9305521,4.2454447 C20.9522189,4.35811193 20.9673854,4.42744457 20.9760521,4.4534447 C21.1840531,4.17610998 21.4592171,3.94211232 21.8015521,3.7514447 C22.1438872,3.56077708 22.5100502,3.4654447 22.9000521,3.4654447 C23.7927232,3.4654447 24.3647175,3.79477474 24.6160521,4.4534447 C24.8327199,4.17610998 25.118717,3.94211232 25.4740521,3.7514447 C25.8293872,3.56077708 26.2107167,3.4654447 26.6180521,3.4654447 C27.2680554,3.4654447 27.7468839,3.63660965 28.0545521,3.9789447 C28.3622203,4.32127974 28.5160521,4.85210777 28.5160521,5.5714447 L28.5160521,9.9784447 C28.5160521,10.2557794 28.2560547,10.3944447 27.7360521,10.3944447 L27.3720521,10.3944447 C26.8520495,10.3944447 26.5920521,10.2557794 26.5920521,9.9784447 L26.5920521,5.8574447 C26.5920521,5.32010868 26.336388,5.0514447 25.8250521,5.0514447 C25.4003833,5.0514447 25.0580534,5.30277552 24.7980521,5.8054447 L24.7980521,9.9784447 C24.7980521,10.2557794 24.5380547,10.3944447 24.0180521,10.3944447 L23.6540521,10.3944447 C23.1340495,10.3944447 22.8740521,10.2557794 22.8740521,9.9784447 L22.8740521,5.8574447 C22.8740521,5.32010868 22.618388,5.0514447 22.1070521,5.0514447 C21.6823833,5.0514447 21.3400534,5.30277552 21.0800521,5.8054447 L21.0800521,9.9784447 C21.0800521,10.2557794 20.8200547,10.3944447 20.3000521,10.3944447 L19.9360521,10.3944447 C19.4160495,10.3944447 19.1560521,10.2557794 19.1560521,9.9784447 L19.1560521,9.9784447 Z M30.2320521,9.9784447 L30.2320521,0.982444696 C30.2320521,0.705109976 30.4920495,0.566444696 31.0120521,0.566444696 L31.3760521,0.566444696 C31.8960547,0.566444696 32.1560521,0.705109976 32.1560521,0.982444696 L32.1560521,3.8684447 C32.5287206,3.59977669 32.9707162,3.4654447 33.4820521,3.4654447 C34.3487231,3.4654447 35.0225497,3.77960822 35.5035521,4.4079447 C35.9845545,5.03628117 36.2250521,5.89427259 36.2250521,6.9819447 C36.2250521,8.0696168 35.999721,8.92327493 35.5490521,9.5429447 C35.0983832,10.1626145 34.513389,10.4724447 33.7940521,10.4724447 C33.4040502,10.4724447 33.0552203,10.3814456 32.7475521,10.1994447 C32.4398839,10.0174438 32.2080529,9.78344613 32.0520521,9.4974447 L31.9220521,10.0564447 C31.8700518,10.2817792 31.618721,10.3944447 31.1680521,10.3944447 L31.0120521,10.3944447 C30.4920495,10.3944447 30.2320521,10.2557794 30.2320521,9.9784447 L30.2320521,9.9784447 Z M33.2220521,8.8994447 C33.9240556,8.8994447 34.2750521,8.24728455 34.2750521,6.9429447 C34.2750521,5.63860484 33.8720561,4.9864447 33.0660521,4.9864447 C32.7540505,4.9864447 32.4507202,5.06877721 32.1560521,5.2334447 L32.1560521,8.1324447 C32.4507202,8.64378059 32.80605,8.8994447 33.2220521,8.8994447 L33.2220521,8.8994447 Z M37.3170521,6.9624447 C37.3170521,5.82710569 37.5857161,4.96044769 38.1230521,4.3624447 C38.6603881,3.76444171 39.4447136,3.4654447 40.4760521,3.4654447 C41.5073906,3.4654447 42.2895494,3.76444171 42.8225521,4.3624447 C43.3555548,4.96044769 43.6220521,5.82710569 43.6220521,6.9624447 C43.6220521,8.09778371 43.3555548,8.96660835 42.8225521,9.5689447 C42.2895494,10.171281 41.5073906,10.4724447 40.4760521,10.4724447 C39.4447136,10.4724447 38.6603881,10.171281 38.1230521,9.5689447 C37.5857161,8.96660835 37.3170521,8.09778371 37.3170521,6.9624447 L37.3170521,6.9624447 Z M40.4695521,8.9514447 C41.2712228,8.9514447 41.6720521,8.29061797 41.6720521,6.9689447 C41.6720521,5.64727142 41.2712228,4.9864447 40.4695521,4.9864447 C39.6678814,4.9864447 39.2670521,5.64727142 39.2670521,6.9689447 C39.2670521,8.29061797 39.6678814,8.9514447 40.4695521,8.9514447 L40.4695521,8.9514447 Z" id="mambo"></path>
                    </g>
                </g>
            </g>
        </g>
    </g>
</svg>