<?xml version="1.0" encoding="UTF-8" standalone="no"?><svg width="99" height="65" viewBox="0 0 99 65" xmlns="http://www.w3.org/2000/svg" xmlns:xlink="http://www.w3.org/1999/xlink"><svg width="29" height="29" viewBox="0 0 29 29" id="icon-account" x="70"><title>Oval 2</title><circle cx="13.5" cy="13.5" r="13.5" transform="translate(1 1)" stroke-width="2" stroke="#A4A5A6" fill="none" fill-rule="evenodd"/></svg><svg width="17" height="19" viewBox="0 0 17 19" id="icon-alert" x="21" y="46"><title>Shape</title><path d="M8.5 18.99c1.1 0 2-.855 2-1.9h-4c0 1.045.9 1.9 2 1.9zm6.5-5.697V8.07c0-2.944-2.1-5.317-5-5.982v-.665C10 .664 9.3 0 8.5 0S7 .665 7 1.424v.665c-2.9.665-5 3.038-5 5.982v5.222l-2 1.899v.95h17v-.95l-2-1.9z" fill="#000" fill-rule="evenodd" opacity=".3"/></svg><svg width="19" height="19" viewBox="0 0 19 19" id="icon-apps" x="38" y="46"><title>rectangulos</title><g fill="#A5A6A7" fill-rule="evenodd"><path d="M0 0h4.75v4.75H0zM7.125 0h4.75v4.75h-4.75zM14.25 0H19v4.75h-4.75zM0 7.125h4.75v4.75H0zM7.125 7.125h4.75v4.75h-4.75zM14.25 7.125H19v4.75h-4.75zM0 14.25h4.75V19H0zM7.125 14.25h4.75V19h-4.75zM14.25 14.25H19V19h-4.75z"/></g></svg><svg width="21" height="19" viewBox="0 0 21 19" id="icon-star" y="46"><title>Shape</title><path d="M9.648.432a.807.807 0 0 1 .72-.432c.305 0 .584.167.72.432l2.58 5.048a.802.802 0 0 0 .606.424l5.772.81a.795.795 0 0 1 .648.526.756.756 0 0 1-.203.794l-4.177 3.93a.759.759 0 0 0-.231.686l.986 5.549a.763.763 0 0 1-.32.758.83.83 0 0 1-.845.06l-5.164-2.621a.828.828 0 0 0-.747 0l-5.164 2.62a.829.829 0 0 1-.845-.059.763.763 0 0 1-.32-.758l.986-5.55a.758.758 0 0 0-.23-.685L.241 8.034A.756.756 0 0 1 .04 7.24a.795.795 0 0 1 .648-.527l5.774-.81a.801.801 0 0 0 .604-.423L9.648.432z" fill="#FFF" fill-rule="evenodd" opacity=".6"/></svg><svg width="44" height="11" viewBox="0 0 44 11" id="logo-mambo" y="35"><title>1C4682FE-849A-4245-BA8B-AC03BF0ABEEE</title><text transform="translate(-97 -15)" fill="#FFF" fill-rule="evenodd" font-size="13" font-family="Asap-Bold, Asap" font-weight="bold"><tspan x="97.241" y="24.368">mambo</tspan></text></svg><svg width="70" height="35" viewBox="0 0 70 35" id="logo-mambo_home"><title>logo mambo home</title><g fill="#FFF" fill-rule="evenodd"><path d="M14.866 34.485h-.91c-.988 0-1.482-.268-1.482-.806l.702-6.812h-7.02l-.702 6.786c-.052.555-.598.832-1.638.832h-.91c-.988 0-1.482-.268-1.482-.806l1.742-16.666c.052-.554.598-.832 1.638-.832h.91c.988 0 1.482.27 1.482.806l-.676 6.448h7.02l.676-6.422c.052-.554.598-.832 1.638-.832h.91c.988 0 1.482.27 1.482.806l-1.742 16.666c-.052.555-.598.832-1.638.832zm5.382-5.538c0-2.27.503-4.186 1.508-5.746.52-.797 1.261-1.425 2.223-1.885.962-.459 2.093-.689 3.393-.689 1.855 0 3.259.486 4.212 1.456.954.971 1.43 2.392 1.43 4.264 0 2.635-.632 4.676-1.898 6.123-1.265 1.448-3.007 2.171-5.226 2.171-1.854 0-3.258-.485-4.212-1.456-.953-.97-1.43-2.383-1.43-4.238zm5.954 2.652c.902 0 1.608-.437 2.12-1.313.51-.875.766-2.127.766-3.757 0-1.906-.676-2.86-2.028-2.86-.918 0-1.633.438-2.145 1.313-.511.876-.767 2.137-.767 3.783 0 1.89.685 2.834 2.054 2.834zm9.698-8.294l-.052-1.456c0-.277.286-.502.858-.676.572-.173 1.292-.26 2.158-.26.399 0 .65.278.754.832.035.208.061.503.078.884.451-.554 1.049-1.027 1.794-1.417.746-.39 1.491-.585 2.236-.585 1.803 0 2.895.668 3.276 2.002.434-.537 1.04-1.005 1.82-1.404.78-.398 1.56-.598 2.34-.598 2.288 0 3.432 1.101 3.432 3.302l-.65 6.812c0 .572.26.858.78.858.139 0 .295-.026.468-.078a2.66 2.66 0 0 1 .286-.078c.139 0 .208.13.208.39s-.06.746-.182 1.456c-.069.434-.338.767-.806 1.001a3.27 3.27 0 0 1-1.482.351c-2.097 0-3.146-1.1-3.146-3.302l.598-6.24c0-.866-.437-1.3-1.313-1.3-.875 0-1.65.494-2.327 1.482l-.806 8.372c-.052.555-.598.832-1.638.832h-.728c-.485 0-.853-.078-1.105-.234-.251-.156-.377-.346-.377-.572.572-5.546.858-8.406.858-8.58 0-.866-.437-1.3-1.313-1.3-.875 0-1.65.503-2.327 1.508l-.832 8.346c-.052.555-.598.832-1.638.832h-.728c-.485 0-.853-.078-1.105-.234-.251-.156-.377-.346-.377-.572l.884-8.528c.07-.676.104-1.29.104-1.846zm25.857 7.735c.46.373 1.053.56 1.781.56a6.91 6.91 0 0 0 2.028-.287c.624-.19 1.131-.38 1.521-.572.39-.19.611-.286.663-.286.139 0 .208.122.208.364 0 .26-.026.629-.078 1.105-.052.477-.095.776-.13.897-.19.642-.754 1.105-1.69 1.391a9.65 9.65 0 0 1-2.834.43c-2.062 0-3.6-.503-4.615-1.509-1.014-1.005-1.52-2.409-1.52-4.212 0-2.825.667-4.914 2.001-6.266 1.335-1.352 3.051-2.028 5.148-2.028.988 0 1.838.13 2.548.39.711.26 1.231.598 1.56 1.014.624.763.936 1.552.936 2.366 0 1.595-.563 2.787-1.69 3.575-1.126.79-2.426 1.183-3.9 1.183-.953 0-1.854-.06-2.704-.182.052 1.006.308 1.695.767 2.067zm2.223-7.37c-1.438 0-2.374.97-2.808 2.911h1.248c1.11 0 1.907-.169 2.392-.507.486-.338.728-.732.728-1.183 0-.814-.52-1.222-1.56-1.222zM1.047 9.978v-4.12c0-.65-.026-1.106-.078-1.366a3.892 3.892 0 0 1-.078-.468c0-.138.176-.242.527-.312.35-.069.613-.104.786-.104.173 0 .288.018.345.052a.367.367 0 0 1 .136.163c.035.074.06.134.078.182.017.048.037.128.059.24.021.113.036.182.045.208.208-.277.483-.51.826-.702.342-.19.708-.286 1.098-.286.893 0 1.465.33 1.716.988a2.67 2.67 0 0 1 .858-.702c.355-.19.737-.286 1.144-.286.65 0 1.129.172 1.437.514.307.342.461.873.461 1.592v4.407c0 .278-.26.416-.78.416h-.364c-.52 0-.78-.138-.78-.416v-4.12c0-.538-.256-.807-.767-.807-.425 0-.767.252-1.027.754v4.173c0 .278-.26.416-.78.416h-.364c-.52 0-.78-.138-.78-.416v-4.12c0-.538-.256-.807-.767-.807-.425 0-.767.252-1.027.754v4.173c0 .278-.26.416-.78.416h-.364c-.52 0-.78-.138-.78-.416zm10.764-1.404c0-.242.022-.463.065-.663.043-.199.143-.413.3-.643a1.83 1.83 0 0 1 .623-.566c.615-.364 1.53-.546 2.743-.546v-.429c0-.494-.338-.74-1.014-.74-.477 0-.94.103-1.39.311-.157.07-.248.104-.274.104-.13 0-.275-.134-.435-.403-.16-.268-.24-.48-.24-.637 0-.234.24-.442.72-.624.482-.182 1.069-.273 1.762-.273 1.863 0 2.795.724 2.795 2.171V8.08c0 .538.026.988.078 1.352l.078.533c0 .14-.175.243-.526.312-.351.07-.614.104-.787.104-.173 0-.288-.017-.344-.052a.362.362 0 0 1-.137-.175 4.482 4.482 0 0 1-.078-.195 1.75 1.75 0 0 1-.058-.254 2.35 2.35 0 0 0-.046-.22c-.156.277-.425.51-.806.701-.381.191-.75.286-1.105.286-.667 0-1.155-.173-1.462-.52-.308-.346-.462-.806-.462-1.378zm1.911-.195c0 .174.056.312.17.416.112.104.28.156.506.156.225 0 .446-.078.663-.234.217-.156.377-.35.481-.585v-.715c-1.213 0-1.82.321-1.82.962zm5.434 1.6V5.856c0-.65-.026-1.105-.078-1.365A3.892 3.892 0 0 1 19 4.024c0-.138.176-.242.527-.312.35-.069.613-.104.786-.104.173 0 .288.018.345.052a.367.367 0 0 1 .136.163c.035.074.06.134.078.182.017.048.037.128.059.24.021.113.036.182.045.208.208-.277.483-.51.826-.702.342-.19.708-.286 1.098-.286.893 0 1.465.33 1.716.988a2.67 2.67 0 0 1 .858-.702c.355-.19.737-.286 1.144-.286.65 0 1.129.172 1.437.514.307.342.461.873.461 1.592v4.407c0 .278-.26.416-.78.416h-.364c-.52 0-.78-.138-.78-.416v-4.12c0-.538-.256-.807-.767-.807-.425 0-.767.252-1.027.754v4.173c0 .278-.26.416-.78.416h-.364c-.52 0-.78-.138-.78-.416v-4.12c0-.538-.256-.807-.767-.807-.425 0-.767.252-1.027.754v4.173c0 .278-.26.416-.78.416h-.364c-.52 0-.78-.138-.78-.416zm11.076 0V.981c0-.277.26-.416.78-.416h.364c.52 0 .78.14.78.416v2.886c.373-.268.815-.403 1.326-.403.867 0 1.54.315 2.022.943.48.628.721 1.486.721 2.574 0 1.088-.225 1.941-.676 2.56-.45.62-1.036.93-1.755.93-.39 0-.739-.09-1.046-.273a1.832 1.832 0 0 1-.696-.702l-.13.56c-.052.225-.303.337-.754.337h-.156c-.52 0-.78-.138-.78-.416zm2.99-1.08c.702 0 1.053-.652 1.053-1.956 0-1.304-.403-1.957-1.209-1.957-.312 0-.615.083-.91.247v2.9c.295.51.65.766 1.066.766zm4.095-1.937c0-1.135.269-2.002.806-2.6.537-.598 1.322-.897 2.353-.897 1.031 0 1.814.3 2.347.897.533.598.8 1.465.8 2.6 0 1.136-.267 2.005-.8 2.607-.533.602-1.316.903-2.347.903s-1.816-.3-2.353-.903c-.537-.602-.806-1.471-.806-2.607zm3.153 1.99c.801 0 1.202-.661 1.202-1.983s-.4-1.983-1.202-1.983c-.802 0-1.203.661-1.203 1.983s.4 1.982 1.203 1.982z"/></g></svg></svg>