<?xml version="1.0" encoding="UTF-8" standalone="no"?><svg xmlns="http://www.w3.org/2000/svg" xmlns:xlink="http://www.w3.org/1999/xlink"><symbol viewBox="0 0 29 29" id="icon-account"><title>Oval 2</title><circle cx="13.5" cy="13.5" r="13.5" transform="translate(1 1)"/></symbol><symbol viewBox="0 0 17 19" id="icon-alert"><title>Shape</title><path d="M8.5 18.99c1.1 0 2-.855 2-1.9h-4c0 1.045.9 1.9 2 1.9zm6.5-5.697V8.07c0-2.944-2.1-5.317-5-5.982v-.665C10 .664 9.3 0 8.5 0S7 .665 7 1.424v.665c-2.9.665-5 3.038-5 5.982v5.222l-2 1.899v.95h17v-.95l-2-1.9z"/></symbol><symbol viewBox="0 0 19 19" id="icon-apps"><title>rectangulos</title><g><path d="M0 0h4.75v4.75H0zM7.125 0h4.75v4.75h-4.75zM14.25 0H19v4.75h-4.75zM0 7.125h4.75v4.75H0zM7.125 7.125h4.75v4.75h-4.75zM14.25 7.125H19v4.75h-4.75zM0 14.25h4.75V19H0zM7.125 14.25h4.75V19h-4.75zM14.25 14.25H19V19h-4.75z"/></g></symbol><symbol viewBox="0 0 19 19" id="icon-close"><title>2F07E470-6956-4936-A20B-3D9158F2AE80</title><path d="M18.38 1.43a1.877 1.877 0 0 0-2.655 0L9.905 7.25 4.083 1.43a1.877 1.877 0 1 0-2.655 2.655l5.82 5.821-5.82 5.822a1.877 1.877 0 1 0 2.655 2.654l5.82-5.82 5.821 5.82c.367.367.847.55 1.328.55a1.877 1.877 0 0 0 1.328-3.205l-5.822-5.82 5.821-5.822a1.877 1.877 0 0 0 0-2.655z"/></symbol><symbol viewBox="0 0 19 18" id="icon-config"><title>F54C3294-5C3D-4B0F-A6B7-64B5CE5115CF</title><path d="M14.972 6.419a6.704 6.704 0 0 0-.726-1.25c.823-1.811 1.234-2.917 1.234-3.318 0-.064-.032-.12-.097-.168C13.448.56 12.448 0 12.383 0l-.144.048c-.661.658-1.403 1.555-2.225 2.693a8.102 8.102 0 0 0-.726-.048c-.161 0-.403.016-.726.048-.225-.337-.644-.878-1.257-1.623C6.693.373 6.322 0 6.193 0c-.033 0-.274.128-.726.385-.452.257-.927.529-1.427.817-.5.289-.782.45-.847.481-.065.048-.097.104-.097.168 0 .401.412 1.507 1.234 3.318a6.737 6.737 0 0 0-.726 1.25C1.201 6.66 0 6.908 0 7.164v3.366c0 .256 1.201.505 3.604.745.193.433.436.85.726 1.25-.822 1.812-1.234 2.917-1.234 3.318 0 .064.032.12.097.168 1.967 1.138 2.967 1.707 3 1.707.129 0 .5-.377 1.112-1.13.613-.753 1.032-1.298 1.257-1.635a8.1 8.1 0 0 0 .726.048c.162 0 .403-.016.726-.048.225.337.644.882 1.257 1.635.613.753.983 1.13 1.113 1.13.032 0 1.032-.569 3-1.707.064-.048.096-.104.096-.168 0-.4-.412-1.506-1.234-3.318.29-.4.532-.817.726-1.25 2.403-.24 3.604-.489 3.604-.745V7.164c0-.256-1.201-.505-3.604-.745zm-3.495 4.604a2.99 2.99 0 0 1-2.19.902c-.854 0-1.584-.301-2.188-.902a2.955 2.955 0 0 1-.907-2.176c0-.833.306-1.555.919-2.164.613-.609 1.338-.913 2.177-.913.838 0 1.564.305 2.177.913.612.61.92 1.33.92 2.164-.001.85-.303 1.575-.908 2.176z"/></symbol><symbol viewBox="0 0 15 26" id="icon-go-left"><title>AEB9ED48-72B0-42CE-9CD1-3B7FAAECC157</title><path d="M4.648 13L14.655 2.848a.822.822 0 0 0 0-1.188L13.382.368a.8.8 0 0 0-.586-.259.8.8 0 0 0-.585.259L.346 12.406a.822.822 0 0 0 0 1.188L12.21 25.632c.17.173.365.259.586.259.22 0 .416-.086.585-.259l1.273-1.29a.823.823 0 0 0 0-1.19L4.648 13z"/></symbol><symbol viewBox="0 0 11 18" id="icon-go-right"><title>37D04798-2FFA-42B9-BB61-402EE06426E8</title><path d="M2.081 0L0 2.081 6.838 8.92 0 15.757l2.081 2.08L11 8.92z"/></symbol><symbol viewBox="0 0 18 18" id="icon-help"><title>A90601C3-E33A-4DA3-92B0-E7568965F455</title><path d="M16.793 4.482a8.962 8.962 0 0 0-3.275-3.275A8.804 8.804 0 0 0 9 0a8.803 8.803 0 0 0-4.517 1.207 8.959 8.959 0 0 0-3.276 3.275A8.803 8.803 0 0 0 0 9c0 1.633.402 3.139 1.207 4.518a8.962 8.962 0 0 0 3.276 3.275A8.804 8.804 0 0 0 9 18a8.803 8.803 0 0 0 4.518-1.207 8.96 8.96 0 0 0 3.275-3.275A8.805 8.805 0 0 0 18 9a8.806 8.806 0 0 0-1.207-4.518zM10.5 14.625c0 .11-.035.2-.105.27a.364.364 0 0 1-.27.105h-2.25c-.109 0-.199-.035-.27-.106a.364.364 0 0 1-.105-.269v-2.25c0-.11.035-.2.106-.27.07-.07.16-.105.27-.105h2.25c.109 0 .199.035.269.105.07.07.105.16.105.27v2.25zm2.854-6.926c-.098.29-.207.526-.328.71a2.718 2.718 0 0 1-.522.562 4.897 4.897 0 0 1-.54.41 17.53 17.53 0 0 1-.573.334c-.258.148-.47.342-.638.58-.168.238-.252.432-.252.58 0 .11-.036.2-.106.27a.364.364 0 0 1-.27.105h-2.25c-.109 0-.199-.035-.27-.106a.365.365 0 0 1-.104-.27v-.421c0-.524.204-1.014.615-1.47.41-.458.861-.796 1.353-1.015.375-.171.64-.347.797-.527.157-.18.235-.418.235-.715 0-.258-.147-.488-.44-.691a1.716 1.716 0 0 0-1.002-.305c-.406 0-.742.094-1.008.281-.258.188-.594.547-1.008 1.078a.346.346 0 0 1-.293.141.331.331 0 0 1-.222-.07L4.98 5.988c-.18-.14-.21-.304-.094-.492C5.887 3.832 7.337 3 9.235 3c.68 0 1.344.16 1.992.48.649.32 1.19.774 1.623 1.36.434.586.65 1.222.65 1.91 0 .344-.049.66-.146.95z"/></symbol><symbol viewBox="0 0 25 20" id="icon-home"><title>46BCB8D2-5724-4289-8B25-0235A6233752</title><g><path d="M12.481 4.03l-8.903 7.375c0 .01-.002.026-.007.046a.214.214 0 0 0-.008.047v7.468c0 .27.098.503.294.7a.95.95 0 0 0 .697.296h5.945v-5.975h3.964v5.975h5.945a.95.95 0 0 0 .697-.296.959.959 0 0 0 .294-.7v-7.468a.22.22 0 0 0-.015-.093L12.48 4.03z"/><path d="M24.79 9.724L21.4 6.893V.545a.48.48 0 0 0-.495-.498H17.93a.482.482 0 0 0-.356.14.487.487 0 0 0-.14.358v3.034L13.659.405A1.801 1.801 0 0 0 12.48 0c-.454 0-.846.135-1.176.405L.172 9.725a.453.453 0 0 0-.17.334c-.01.14.025.262.108.366l.96 1.151c.083.093.19.15.325.171a.573.573 0 0 0 .372-.109L12.48 2.661l10.714 8.977c.083.073.191.109.325.109h.047a.528.528 0 0 0 .325-.171l.96-1.151a.505.505 0 0 0 .108-.366.454.454 0 0 0-.17-.335z"/></g></symbol><symbol viewBox="0 0 21 21" id="icon-important-alert"><title>D673597D-C6D1-4A16-9825-78E51A3A828F</title><g><path d="M21 10.5C21 16.299 16.299 21 10.5 21S0 16.299 0 10.5 4.701 0 10.5 0 21 4.701 21 10.5"/><path d="M11.94 16.804a.42.42 0 0 1-.101.287.316.316 0 0 1-.248.116h-2.16a.343.343 0 0 1-.259-.122.402.402 0 0 1-.112-.28v-2.32c0-.107.037-.2.112-.282a.343.343 0 0 1 .26-.122h2.16c.097 0 .18.04.247.116a.422.422 0 0 1 .101.287v2.32zM11.918 11.518a.316.316 0 0 1-.118.214.393.393 0 0 1-.265.091H9.454a.415.415 0 0 1-.27-.091c-.075-.061-.113-.133-.113-.214L8.88 3.934c0-.098.037-.171.112-.22a.398.398 0 0 1 .27-.097h2.476c.105 0 .195.032.27.097a.245.245 0 0 1 .112.22l-.202 7.584z"/></g></symbol><symbol viewBox="0 0 17 19" id="icon-logout"><title>E7E532A7-8E55-4879-B93B-371AF9B9C5B7</title><g><path d="M9.396 9.252c.279-.273.418-.597.418-.97V1.38c0-.374-.14-.697-.418-.97A1.364 1.364 0 0 0 8.407 0c-.381 0-.71.137-.99.41A1.314 1.314 0 0 0 7 1.38v6.902c0 .373.14.697.418.97.278.273.608.41.99.41.38 0 .71-.137.988-.41z"/><path d="M13.51 3.283a1.384 1.384 0 0 0-1.044-.27c-.389.05-.696.23-.924.54a1.294 1.294 0 0 0-.269 1.019c.055.377.236.68.544.91a5.532 5.532 0 0 1 1.665 1.953c.392.769.588 1.588.588 2.458 0 .748-.148 1.461-.445 2.14a5.558 5.558 0 0 1-1.204 1.764 5.68 5.68 0 0 1-1.797 1.18 5.574 5.574 0 0 1-2.182.437c-.762 0-1.49-.145-2.182-.437a5.681 5.681 0 0 1-1.797-1.18 5.56 5.56 0 0 1-1.204-1.763 5.29 5.29 0 0 1-.445-2.14c0-.87.196-1.69.588-2.46.392-.768.947-1.42 1.666-1.951.307-.23.489-.534.544-.911a1.294 1.294 0 0 0-.27-1.02 1.304 1.304 0 0 0-.917-.538 1.41 1.41 0 0 0-1.05.27 8.163 8.163 0 0 0-2.49 2.91A8.031 8.031 0 0 0 0 9.895c0 1.12.224 2.192.67 3.213a8.348 8.348 0 0 0 1.803 2.641 8.524 8.524 0 0 0 2.694 1.769 8.35 8.35 0 0 0 3.275.658 8.35 8.35 0 0 0 3.276-.658 8.526 8.526 0 0 0 2.693-1.769 8.348 8.348 0 0 0 1.803-2.641c.447-1.021.67-2.092.67-3.214A8.03 8.03 0 0 0 16 6.195a8.164 8.164 0 0 0-2.49-2.912z"/></g></symbol><symbol viewBox="0 0 19 19" id="icon-search"><title>C0457BD3-7DA7-476F-8FE3-A80FBF3C2321</title><path d="M18.535 16.29l-4.128-4.128c-.022-.022-.047-.037-.07-.058a7.812 7.812 0 1 0-2.233 2.232c.02.024.036.05.058.071l4.127 4.128a1.588 1.588 0 0 0 2.246-2.245zM2.708 7.81a5.104 5.104 0 1 1 10.207 0 5.104 5.104 0 0 1-10.207 0z"/></symbol><symbol viewBox="0 0 21 19" id="icon-star"><title>Shape</title><path d="M9.648.432a.807.807 0 0 1 .72-.432c.305 0 .584.167.72.432l2.58 5.048a.802.802 0 0 0 .606.424l5.772.81a.795.795 0 0 1 .648.526.756.756 0 0 1-.203.794l-4.177 3.93a.759.759 0 0 0-.231.686l.986 5.549a.763.763 0 0 1-.32.758.83.83 0 0 1-.845.06l-5.164-2.621a.828.828 0 0 0-.747 0l-5.164 2.62a.829.829 0 0 1-.845-.059.763.763 0 0 1-.32-.758l.986-5.55a.758.758 0 0 0-.23-.685L.241 8.034A.756.756 0 0 1 .04 7.24a.795.795 0 0 1 .648-.527l5.774-.81a.801.801 0 0 0 .604-.423L9.648.432z"/></symbol><symbol viewBox="0 0 23 25" id="icon-trash"><title>7ABB9F1D-53BE-4E49-9192-ED043D3A723B</title><g><path d="M22.356 4.223h-4.992l-1.131-2.699c-.161-.399-.452-.738-.872-1.018s-.846-.42-1.276-.42h-5.17c-.43 0-.856.14-1.276.42-.42.28-.71.62-.872 1.018l-1.131 2.7H.644a.503.503 0 0 0-.371.145.505.505 0 0 0-.146.372v1.034c0 .151.049.275.146.372.097.097.22.145.371.145h1.551v15.39c0 .894.253 1.657.76 2.287.506.63 1.114.946 1.825.946h13.44c.711 0 1.32-.326 1.826-.978.506-.652.759-1.425.759-2.32V6.292h1.55c.151 0 .275-.048.372-.145a.504.504 0 0 0 .146-.372V4.741a.505.505 0 0 0-.146-.372.503.503 0 0 0-.371-.146zM8.673 2.332a.455.455 0 0 1 .275-.178h5.12c.108.022.2.081.275.178l.776 1.891H7.88l.792-1.891zm10.064 19.285c0 .237-.037.456-.113.655-.075.2-.154.345-.234.436-.081.092-.137.138-.17.138H4.78c-.032 0-.089-.046-.17-.138a1.447 1.447 0 0 1-.234-.436 1.837 1.837 0 0 1-.113-.655V6.292h14.474v15.325z"/><path d="M6.848 19.742H7.88c.151 0 .275-.048.372-.145a.505.505 0 0 0 .145-.372V9.913a.505.505 0 0 0-.145-.371.503.503 0 0 0-.372-.146H6.848a.503.503 0 0 0-.372.146.505.505 0 0 0-.145.371v9.312c0 .151.048.275.145.372.097.097.22.145.372.145zM10.983 19.742h1.034c.15 0 .275-.048.371-.145a.503.503 0 0 0 .146-.372V9.913a.503.503 0 0 0-.146-.371.502.502 0 0 0-.371-.146h-1.034a.504.504 0 0 0-.371.146.504.504 0 0 0-.146.371v9.312c0 .151.049.275.146.372.096.097.22.145.371.145zM15.119 19.742h1.033c.151 0 .275-.048.372-.145a.505.505 0 0 0 .145-.372V9.913a.504.504 0 0 0-.145-.371.503.503 0 0 0-.372-.146H15.12a.503.503 0 0 0-.372.146.504.504 0 0 0-.145.371v9.312c0 .151.048.275.145.372.097.097.22.145.372.145z"/></g></symbol><symbol viewBox="0 0 44 11" id="logo-mambo"><title>1C4682FE-849A-4245-BA8B-AC03BF0ABEEE</title><text transform="translate(-97 -15)" font-size="13" font-family="Asap-Bold, Asap" font-weight="bold"><tspan x="97.241" y="24.368">mambo</tspan></text></symbol><symbol viewBox="0 0 70 35" id="logo-mambo_home"><title>logo mambo home</title><g><path d="M14.866 34.485h-.91c-.988 0-1.482-.268-1.482-.806l.702-6.812h-7.02l-.702 6.786c-.052.555-.598.832-1.638.832h-.91c-.988 0-1.482-.268-1.482-.806l1.742-16.666c.052-.554.598-.832 1.638-.832h.91c.988 0 1.482.27 1.482.806l-.676 6.448h7.02l.676-6.422c.052-.554.598-.832 1.638-.832h.91c.988 0 1.482.27 1.482.806l-1.742 16.666c-.052.555-.598.832-1.638.832zm5.382-5.538c0-2.27.503-4.186 1.508-5.746.52-.797 1.261-1.425 2.223-1.885.962-.459 2.093-.689 3.393-.689 1.855 0 3.259.486 4.212 1.456.954.971 1.43 2.392 1.43 4.264 0 2.635-.632 4.676-1.898 6.123-1.265 1.448-3.007 2.171-5.226 2.171-1.854 0-3.258-.485-4.212-1.456-.953-.97-1.43-2.383-1.43-4.238zm5.954 2.652c.902 0 1.608-.437 2.12-1.313.51-.875.766-2.127.766-3.757 0-1.906-.676-2.86-2.028-2.86-.918 0-1.633.438-2.145 1.313-.511.876-.767 2.137-.767 3.783 0 1.89.685 2.834 2.054 2.834zm9.698-8.294l-.052-1.456c0-.277.286-.502.858-.676.572-.173 1.292-.26 2.158-.26.399 0 .65.278.754.832.035.208.061.503.078.884.451-.554 1.049-1.027 1.794-1.417.746-.39 1.491-.585 2.236-.585 1.803 0 2.895.668 3.276 2.002.434-.537 1.04-1.005 1.82-1.404.78-.398 1.56-.598 2.34-.598 2.288 0 3.432 1.101 3.432 3.302l-.65 6.812c0 .572.26.858.78.858.139 0 .295-.026.468-.078a2.66 2.66 0 0 1 .286-.078c.139 0 .208.13.208.39s-.06.746-.182 1.456c-.069.434-.338.767-.806 1.001a3.27 3.27 0 0 1-1.482.351c-2.097 0-3.146-1.1-3.146-3.302l.598-6.24c0-.866-.437-1.3-1.313-1.3-.875 0-1.65.494-2.327 1.482l-.806 8.372c-.052.555-.598.832-1.638.832h-.728c-.485 0-.853-.078-1.105-.234-.251-.156-.377-.346-.377-.572.572-5.546.858-8.406.858-8.58 0-.866-.437-1.3-1.313-1.3-.875 0-1.65.503-2.327 1.508l-.832 8.346c-.052.555-.598.832-1.638.832h-.728c-.485 0-.853-.078-1.105-.234-.251-.156-.377-.346-.377-.572l.884-8.528c.07-.676.104-1.29.104-1.846zm25.857 7.735c.46.373 1.053.56 1.781.56a6.91 6.91 0 0 0 2.028-.287c.624-.19 1.131-.38 1.521-.572.39-.19.611-.286.663-.286.139 0 .208.122.208.364 0 .26-.026.629-.078 1.105-.052.477-.095.776-.13.897-.19.642-.754 1.105-1.69 1.391a9.65 9.65 0 0 1-2.834.43c-2.062 0-3.6-.503-4.615-1.509-1.014-1.005-1.52-2.409-1.52-4.212 0-2.825.667-4.914 2.001-6.266 1.335-1.352 3.051-2.028 5.148-2.028.988 0 1.838.13 2.548.39.711.26 1.231.598 1.56 1.014.624.763.936 1.552.936 2.366 0 1.595-.563 2.787-1.69 3.575-1.126.79-2.426 1.183-3.9 1.183-.953 0-1.854-.06-2.704-.182.052 1.006.308 1.695.767 2.067zm2.223-7.37c-1.438 0-2.374.97-2.808 2.911h1.248c1.11 0 1.907-.169 2.392-.507.486-.338.728-.732.728-1.183 0-.814-.52-1.222-1.56-1.222zM1.047 9.978v-4.12c0-.65-.026-1.106-.078-1.366a3.892 3.892 0 0 1-.078-.468c0-.138.176-.242.527-.312.35-.069.613-.104.786-.104.173 0 .288.018.345.052a.367.367 0 0 1 .136.163c.035.074.06.134.078.182.017.048.037.128.059.24.021.113.036.182.045.208.208-.277.483-.51.826-.702.342-.19.708-.286 1.098-.286.893 0 1.465.33 1.716.988a2.67 2.67 0 0 1 .858-.702c.355-.19.737-.286 1.144-.286.65 0 1.129.172 1.437.514.307.342.461.873.461 1.592v4.407c0 .278-.26.416-.78.416h-.364c-.52 0-.78-.138-.78-.416v-4.12c0-.538-.256-.807-.767-.807-.425 0-.767.252-1.027.754v4.173c0 .278-.26.416-.78.416h-.364c-.52 0-.78-.138-.78-.416v-4.12c0-.538-.256-.807-.767-.807-.425 0-.767.252-1.027.754v4.173c0 .278-.26.416-.78.416h-.364c-.52 0-.78-.138-.78-.416zm10.764-1.404c0-.242.022-.463.065-.663.043-.199.143-.413.3-.643a1.83 1.83 0 0 1 .623-.566c.615-.364 1.53-.546 2.743-.546v-.429c0-.494-.338-.74-1.014-.74-.477 0-.94.103-1.39.311-.157.07-.248.104-.274.104-.13 0-.275-.134-.435-.403-.16-.268-.24-.48-.24-.637 0-.234.24-.442.72-.624.482-.182 1.069-.273 1.762-.273 1.863 0 2.795.724 2.795 2.171V8.08c0 .538.026.988.078 1.352l.078.533c0 .14-.175.243-.526.312-.351.07-.614.104-.787.104-.173 0-.288-.017-.344-.052a.362.362 0 0 1-.137-.175 4.482 4.482 0 0 1-.078-.195 1.75 1.75 0 0 1-.058-.254 2.35 2.35 0 0 0-.046-.22c-.156.277-.425.51-.806.701-.381.191-.75.286-1.105.286-.667 0-1.155-.173-1.462-.52-.308-.346-.462-.806-.462-1.378zm1.911-.195c0 .174.056.312.17.416.112.104.28.156.506.156.225 0 .446-.078.663-.234.217-.156.377-.35.481-.585v-.715c-1.213 0-1.82.321-1.82.962zm5.434 1.6V5.856c0-.65-.026-1.105-.078-1.365A3.892 3.892 0 0 1 19 4.024c0-.138.176-.242.527-.312.35-.069.613-.104.786-.104.173 0 .288.018.345.052a.367.367 0 0 1 .136.163c.035.074.06.134.078.182.017.048.037.128.059.24.021.113.036.182.045.208.208-.277.483-.51.826-.702.342-.19.708-.286 1.098-.286.893 0 1.465.33 1.716.988a2.67 2.67 0 0 1 .858-.702c.355-.19.737-.286 1.144-.286.65 0 1.129.172 1.437.514.307.342.461.873.461 1.592v4.407c0 .278-.26.416-.78.416h-.364c-.52 0-.78-.138-.78-.416v-4.12c0-.538-.256-.807-.767-.807-.425 0-.767.252-1.027.754v4.173c0 .278-.26.416-.78.416h-.364c-.52 0-.78-.138-.78-.416v-4.12c0-.538-.256-.807-.767-.807-.425 0-.767.252-1.027.754v4.173c0 .278-.26.416-.78.416h-.364c-.52 0-.78-.138-.78-.416zm11.076 0V.981c0-.277.26-.416.78-.416h.364c.52 0 .78.14.78.416v2.886c.373-.268.815-.403 1.326-.403.867 0 1.54.315 2.022.943.48.628.721 1.486.721 2.574 0 1.088-.225 1.941-.676 2.56-.45.62-1.036.93-1.755.93-.39 0-.739-.09-1.046-.273a1.832 1.832 0 0 1-.696-.702l-.13.56c-.052.225-.303.337-.754.337h-.156c-.52 0-.78-.138-.78-.416zm2.99-1.08c.702 0 1.053-.652 1.053-1.956 0-1.304-.403-1.957-1.209-1.957-.312 0-.615.083-.91.247v2.9c.295.51.65.766 1.066.766zm4.095-1.937c0-1.135.269-2.002.806-2.6.537-.598 1.322-.897 2.353-.897 1.031 0 1.814.3 2.347.897.533.598.8 1.465.8 2.6 0 1.136-.267 2.005-.8 2.607-.533.602-1.316.903-2.347.903s-1.816-.3-2.353-.903c-.537-.602-.806-1.471-.806-2.607zm3.153 1.99c.801 0 1.202-.661 1.202-1.983s-.4-1.983-1.202-1.983c-.802 0-1.203.661-1.203 1.983s.4 1.982 1.203 1.982z"/></g></symbol></svg>